<svg version="1.1" id="Layer_1" xmlns="http://www.w3.org/2000/svg" xmlns:xlink="http://www.w3.org/1999/xlink" x="0px" y="0px"
	 width="100%" viewBox="0 0 1024 1024" enable-background="new 0 0 1024 1024" xml:space="preserve">
<path fill="currentColor" opacity="1.000000" stroke="none" 
	d="
M350.442169,687.442749 
	C314.712280,723.151001 279.192108,758.569336 243.819321,794.134277 
	C240.532639,797.438782 238.499069,797.354004 235.354279,794.110840 
	C223.167343,781.542297 224.557007,785.102356 235.322769,774.318420 
	C260.868774,748.729431 286.624908,723.350037 312.351593,697.942017 
	C315.247437,695.082031 317.489746,691.891724 319.265259,688.251465 
	C331.825836,662.498779 344.366760,636.735718 357.135223,611.086121 
	C359.050842,607.237976 357.904175,605.102966 355.184845,602.517395 
	C330.241272,578.801086 311.973480,550.618347 300.034912,518.417603 
	C292.591461,498.341156 288.584045,477.522400 287.497650,456.056152 
	C285.507751,416.738342 292.888519,379.363678 311.436707,344.711884 
	C342.482269,286.712524 390.140137,248.936111 454.406769,234.547653 
	C522.012329,219.411667 583.871094,233.487000 638.645020,276.650055 
	C651.557678,286.825500 662.532959,298.855988 672.987732,311.438324 
	C675.029236,313.895233 675.310547,315.603455 672.765808,318.133301 
	C636.130371,354.554474 599.605347,391.086853 563.040283,427.578949 
	C561.997986,428.619202 561.124695,429.920074 558.449097,430.605621 
	C542.784241,401.204559 528.898499,370.603394 512.951050,339.200165 
	C462.483215,441.798248 412.723846,542.956055 362.564789,644.926392 
	C366.250610,644.450134 367.576843,642.425781 369.130615,640.879089 
	C416.956970,593.269653 464.762573,545.639343 512.566833,498.007721 
	C585.982483,424.857269 659.393799,351.702515 732.809265,278.551910 
	C748.150269,263.266296 763.588013,248.076157 778.780579,232.644501 
	C782.120667,229.251755 784.178711,229.058533 787.561401,232.637894 
	C796.710327,242.318771 796.830261,242.132584 787.441040,251.506500 
	C722.695374,316.146881 657.986694,380.824463 593.167358,445.390869 
	C590.187317,448.359344 589.313782,450.812683 591.775635,454.317261 
	C593.368896,456.585419 593.853149,459.586853 596.944763,461.866669 
	C631.340088,427.692688 665.752869,393.501404 700.521423,358.956635 
	C703.763977,363.393524 704.865906,367.962372 706.328308,372.282654 
	C716.547058,402.472595 720.424133,433.437958 717.444214,465.230072 
	C713.072815,511.867706 695.046814,552.577454 664.200684,587.656433 
	C660.982178,591.316589 660.538025,594.053711 662.787354,598.564087 
	C677.580811,628.227478 692.032959,658.061523 706.513184,687.880249 
	C708.435669,691.838989 710.867615,695.291077 713.988281,698.387146 
	C741.434875,725.617004 768.780945,752.948486 796.309937,780.094604 
	C799.509338,783.249512 800.331848,785.512634 796.456543,788.393677 
	C795.530334,789.082336 794.801880,790.033569 793.964355,790.845398 
	C785.422485,799.126221 787.606750,799.254395 779.291443,790.957153 
	C716.892029,728.692871 654.521301,666.399780 592.136841,604.120544 
	C566.437134,578.464111 540.727173,552.817932 515.011047,527.177917 
	C514.446411,526.614990 513.751770,526.182495 512.418457,525.145020 
	C458.450165,579.220642 404.571198,633.206726 350.442169,687.442749 
M602.416138,521.042969 
	C593.217346,502.264465 584.018494,483.485962 575.327759,465.744690 
	C559.274658,481.276245 543.448914,496.587830 529.020020,510.547882 
	C574.133484,556.301331 619.109863,601.915833 664.086243,647.530334 
	C664.306274,647.380920 664.526245,647.231567 664.746277,647.082214 
	C644.070618,605.296570 623.395020,563.510864 602.416138,521.042969 
z"/>
<path fill="currentColor" opacity="1.000000" stroke="none" 
	d="
M529.000000,624.843079 
	C549.493958,624.848755 569.488892,624.960999 589.481201,624.781799 
	C594.007324,624.741272 595.461182,626.121399 595.450745,630.760071 
	C595.334473,682.410522 595.378906,734.061584 595.541626,785.711975 
	C595.555054,789.979065 593.419006,790.176819 590.259705,790.172302 
	C564.100952,790.135132 537.942200,790.171753 511.783386,790.169250 
	C486.624329,790.166809 461.464874,790.073914 436.306549,790.201233 
	C432.205963,790.221985 430.464417,789.427551 430.480469,784.732971 
	C430.654938,733.748962 430.590485,682.764099 430.597778,631.779480 
	C430.598755,624.903381 430.615662,624.886658 437.527161,624.882446 
	C467.851440,624.863953 498.175720,624.855957 529.000000,624.843079 
z"/>
</svg>